# xmcd CD database file
#
# Track frame offsets:
#	182
#	21592
#	74165
#	102465
#	122525
#	157217
#	184910
#	196837
#	252142
#
# Disc length: 3945 seconds
#
# Revision: 0
# Processed by: cddbd v1.5.2PL0 Copyright (c) Steve Scherf et al.
# Submitted via: CDex 1.51
#
DISCID=860f6709
DTITLE=Gérard Marais Sextet - Katchinas
DYEAR=1991
DGENRE=Jazz
TTITLE0=Baron Noir
TTITLE1=Brain Dance
TTITLE2=Cassavetes
TTITLE3=Katchinas
TTITLE4=L'Amour Sauvage
TTITLE5=Côte Ouest
TTITLE6=Ile Fanac
TTITLE7=Orient Express
TTITLE8=Canto Soledad
EXTD=YEAR: 1991
EXTT0=
EXTT1=
EXTT2=
EXTT3=
EXTT4=
EXTT5=
EXTT6=
EXTT7=
EXTT8=
PLAYORDER=
